#Comment line ignore any data following # character 
#Hierarchical Translation and Rotation (.htr) file 
[Header]	
#Header keywords are followed by a single value 
FileType HTR		#Single word string
DataType HTRS		#Translation followed by rotation and scale data
FileVersion 1		#integer
NumSegments 64		#integer
NumFrames 3		#integer
DataFrameRate 30		#integer, data frame rate in this file
EulerRotationOrder ZYX
CalibrationUnits mm
RotationUnits Degrees
GlobalAxisofGravity Y
BoneLengthAxis Y
ScaleFactor 1.00
[SegmentNames&Hierarchy]
#CHILD	PARENT
Pinger_Root GLOBAL
Pelvis Pinger_Root
L_Hip Pelvis
R_Hip Pelvis
Rear_Leg01 Pelvis
Spine1 Pelvis
L_Leg01 L_Hip
L_Leg02 L_Leg01
L_Leg03 L_Leg02
L_Foot L_Leg03
L_Toe1_01 L_Foot
L_Toe2_01 L_Foot
L_Toe3_01 L_Foot
planeAlignerLeft L_Foot
L_Toe1_02 L_Toe1_01
L_Toe1_03 L_Toe1_02
L_Toe2_02 L_Toe2_01
L_Toe2_03 L_Toe2_02
L_Toe3_02 L_Toe3_01
L_Toe3_03 L_Toe3_02
planeLockWeightLeft planeAlignerLeft
R_Leg01 R_Hip
R_Leg02 R_Leg01
R_Leg03 R_Leg02
R_Foot R_Leg03
planeAlignerRight R_Foot
R_Toe1_01 R_Foot
R_Toe2_01 R_Foot
R_Toe3_01 R_Foot
planeLockWeightRight planeAlignerRight
R_Toe1_02 R_Toe1_01
R_Toe1_03 R_Toe1_02
R_Toe2_02 R_Toe2_01
R_Toe2_03 R_Toe2_02
R_Toe3_02 R_Toe3_01
R_Toe3_03 R_Toe3_02
Rear_Leg02 Rear_Leg01
Rear_Leg03 Rear_Leg02
Rear_Leg04 Rear_Leg03
Rear_Foot Rear_Leg04
planeAlignerCenter Rear_Foot
Rear_Toe1_01 Rear_Foot
Rear_Toe2_01 Rear_Foot
Rear_Toe3_01 Rear_Foot
planeLockWeightCenter planeAlignerCenter
Rear_Toe1_02 Rear_Toe1_01
Rear_Toe1_03 Rear_Toe1_02
Rear_Toe2_02 Rear_Toe2_01
Rear_Toe2_03 Rear_Toe2_02
Rear_Toe3_02 Rear_Toe3_01
Rear_Toe3_03 Rear_Toe3_02
Back_Bone Spine1
Head Spine1
Motor_Bone Back_Bone
Ping_Mechanism Back_Bone
BN_LookIK Head
bottomMouth Head
L_Mouth01 Head
L_mouthFront Head
mouthGun Head
R_Mouth01 Head
R_mouthFront Head
TopMouth Head
weapon_bone Head
[BasePosition]
#SegmentName Tx, Ty, Tz, Rx, Ry, Rz, BoneLength
Pinger_Root 0.000000 0.000000 0.000000 -90.000000 0.000000 0.000000 10.000000 
Pelvis 0.000000 0.000000 0.000000 0.000000 0.000000 0.000000 10.000000 
L_Hip 0.000000 0.000000 0.000000 0.000000 0.000000 0.000000 10.000000 
R_Hip 0.000000 0.000000 0.000000 0.000000 0.000000 0.000000 10.000000 
Rear_Leg01 0.000000 0.000000 0.000000 0.000000 0.000000 0.000000 10.000000 
Spine1 0.000000 0.000000 0.000000 0.000000 0.000000 0.000000 10.000000 
L_Leg01 0.000000 0.000000 0.000000 0.000000 0.000000 0.000000 10.000000 
L_Leg02 0.000000 0.000000 0.000000 0.000000 0.000000 0.000000 10.000000 
L_Leg03 0.000000 0.000000 0.000000 0.000000 0.000000 0.000000 10.000000 
L_Foot 0.000000 0.000000 0.000000 0.000000 0.000000 0.000000 10.000000 
L_Toe1_01 0.000000 0.000000 0.000000 0.000000 0.000000 0.000000 10.000000 
L_Toe2_01 0.000000 0.000000 0.000000 0.000000 0.000000 0.000000 10.000000 
L_Toe3_01 0.000000 0.000000 0.000000 0.000000 0.000000 0.000000 10.000000 
planeAlignerLeft 0.000000 0.000000 0.000000 0.000000 0.000000 0.000000 10.000000 
L_Toe1_02 0.000000 0.000000 0.000000 0.000000 0.000000 0.000000 10.000000 
L_Toe1_03 0.000000 0.000000 0.000000 0.000000 0.000000 0.000000 10.000000 
L_Toe2_02 0.000000 0.000000 0.000000 0.000000 0.000000 0.000000 10.000000 
L_Toe2_03 0.000000 0.000000 0.000000 0.000000 0.000000 0.000000 10.000000 
L_Toe3_02 0.000000 0.000000 0.000000 0.000000 0.000000 0.000000 10.000000 
L_Toe3_03 0.000000 0.000000 0.000000 0.000000 0.000000 0.000000 10.000000 
planeLockWeightLeft 0.000000 0.000000 0.000000 0.000000 0.000000 0.000000 10.000000 
R_Leg01 0.000000 0.000000 0.000000 0.000000 0.000000 0.000000 10.000000 
R_Leg02 0.000000 0.000000 0.000000 0.000000 0.000000 0.000000 10.000000 
R_Leg03 0.000000 0.000000 0.000000 0.000000 0.000000 0.000000 10.000000 
R_Foot 0.000000 0.000000 0.000000 0.000000 0.000000 0.000000 10.000000 
planeAlignerRight 0.000000 0.000000 0.000000 0.000000 0.000000 0.000000 10.000000 
R_Toe1_01 0.000000 0.000000 0.000000 0.000000 0.000000 0.000000 10.000000 
R_Toe2_01 0.000000 0.000000 0.000000 0.000000 0.000000 0.000000 10.000000 
R_Toe3_01 0.000000 0.000000 0.000000 0.000000 0.000000 0.000000 10.000000 
planeLockWeightRight 0.000000 0.000000 0.000000 0.000000 0.000000 0.000000 10.000000 
R_Toe1_02 0.000000 0.000000 0.000000 0.000000 0.000000 0.000000 10.000000 
R_Toe1_03 0.000000 0.000000 0.000000 0.000000 0.000000 0.000000 10.000000 
R_Toe2_02 0.000000 0.000000 0.000000 0.000000 0.000000 0.000000 10.000000 
R_Toe2_03 0.000000 0.000000 0.000000 0.000000 0.000000 0.000000 10.000000 
R_Toe3_02 0.000000 0.000000 0.000000 0.000000 0.000000 0.000000 10.000000 
R_Toe3_03 0.000000 0.000000 0.000000 0.000000 0.000000 0.000000 10.000000 
Rear_Leg02 0.000000 0.000000 0.000000 0.000000 0.000000 0.000000 10.000000 
Rear_Leg03 0.000000 0.000000 0.000000 0.000000 0.000000 0.000000 10.000000 
Rear_Leg04 0.000000 0.000000 0.000000 0.000000 0.000000 0.000000 10.000000 
Rear_Foot 0.000000 0.000000 0.000000 0.000000 0.000000 0.000000 10.000000 
planeAlignerCenter 0.000000 0.000000 0.000000 0.000000 0.000000 0.000000 10.000000 
Rear_Toe1_01 0.000000 0.000000 0.000000 0.000000 0.000000 0.000000 10.000000 
Rear_Toe2_01 0.000000 0.000000 0.000000 0.000000 0.000000 0.000000 10.000000 
Rear_Toe3_01 0.000000 0.000000 0.000000 0.000000 0.000000 0.000000 10.000000 
planeLockWeightCenter 0.000000 0.000000 0.000000 0.000000 0.000000 0.000000 10.000000 
Rear_Toe1_02 0.000000 0.000000 0.000000 0.000000 0.000000 0.000000 10.000000 
Rear_Toe1_03 0.000000 0.000000 0.000000 0.000000 0.000000 0.000000 10.000000 
Rear_Toe2_02 0.000000 0.000000 0.000000 0.000000 0.000000 0.000000 10.000000 
Rear_Toe2_03 0.000000 0.000000 0.000000 0.000000 0.000000 0.000000 10.000000 
Rear_Toe3_02 0.000000 0.000000 0.000000 0.000000 0.000000 0.000000 10.000000 
Rear_Toe3_03 0.000000 0.000000 0.000000 0.000000 0.000000 0.000000 10.000000 
Back_Bone 0.000000 0.000000 0.000000 0.000000 0.000000 0.000000 10.000000 
Head 0.000000 0.000000 0.000000 0.000000 0.000000 0.000000 10.000000 
Motor_Bone 0.000000 0.000000 0.000000 0.000000 0.000000 0.000000 10.000000 
Ping_Mechanism 0.000000 0.000000 0.000000 0.000000 0.000000 0.000000 10.000000 
BN_LookIK 0.000000 0.000000 0.000000 0.000000 0.000000 0.000000 10.000000 
bottomMouth 0.000000 0.000000 0.000000 0.000000 0.000000 0.000000 10.000000 
L_Mouth01 0.000000 0.000000 0.000000 0.000000 0.000000 0.000000 10.000000 
L_mouthFront 0.000000 0.000000 0.000000 0.000000 0.000000 0.000000 10.000000 
mouthGun 0.000000 0.000000 0.000000 0.000000 0.000000 0.000000 10.000000 
R_Mouth01 0.000000 0.000000 0.000000 0.000000 0.000000 0.000000 10.000000 
R_mouthFront 0.000000 0.000000 0.000000 0.000000 0.000000 0.000000 10.000000 
TopMouth 0.000000 0.000000 0.000000 0.000000 0.000000 0.000000 10.000000 
weapon_bone 0.000000 0.000000 0.000000 0.000000 0.000000 0.000000 10.000000 
#Beginning of Data. Separated by tabs
#Fr	Tx	Ty	Tz	Rx	Ry	Rz	SF
[Pinger_Root]
14 0.000000 0.000000 0.000000 -0.000075 -0.000000 -0.000020 0.000000
15 0.000000 0.000000 0.000000 -0.000075 -0.000000 -0.000020 0.000000
16 0.000000 0.000000 0.000000 -0.000075 -0.000000 -0.000020 0.000000
[Pelvis]
14 73.827827 514.331360 4739.544922 -137.308350 -74.865646 86.824425 4767.941895
15 123.521255 382.631287 4780.740234 -140.800369 -72.925957 89.116570 4797.618652
16 183.633621 246.413879 4823.494141 -141.190155 -72.006653 88.329239 4833.273438
[L_Hip]
14 5.766392 125.831482 872.656799 164.247208 -71.686340 107.383766 881.701050
15 5.766392 125.831482 872.656799 166.269760 -74.177727 104.649368 881.701050
16 5.766392 125.831482 872.656799 168.550171 -76.217369 101.868660 881.701050
[R_Hip]
14 5.765438 125.836372 -872.654907 26.855448 73.682281 114.491699 881.699829
15 5.765438 125.836372 -872.654907 23.390007 75.681160 111.306618 881.699829
16 5.765438 125.836372 -872.654907 18.872986 77.617081 107.068718 881.699829
[Rear_Leg01]
14 -192.298416 -925.602966 -0.001907 -172.543365 -6.961632 -152.472244 945.367432
15 -192.298416 -925.602966 -0.001907 -175.312729 -9.548223 -152.461197 945.367432
16 -192.298416 -925.602966 -0.001907 -177.565109 -11.145482 -151.719574 945.367432
[Spine1]
14 290.604584 5.007505 0.000477 41.773926 -7.161156 10.626497 290.647736
15 290.604584 5.007505 0.000477 42.827293 -5.629151 10.014977 290.647736
16 290.604584 5.007505 0.000477 43.607674 -5.366532 9.448427 290.647736
[L_Leg01]
14 761.932007 -0.002384 -0.069261 59.580261 -24.950117 -30.082315 761.932068
15 761.932007 -0.002384 -0.069261 60.218624 -48.645885 -26.490044 761.932068
16 761.932007 -0.002384 -0.069261 56.453236 -63.775650 -24.411211 761.932068
[L_Leg02]
14 1441.140503 -0.000954 -0.000715 2.597014 -0.391690 -136.801102 1441.140503
15 1441.140503 -0.000954 -0.000715 4.225434 -0.664617 -152.089584 1441.140503
16 1441.140503 -0.000954 -0.000715 4.338490 -0.743704 -154.026184 1441.140503
[L_Leg03]
14 1686.963989 -0.000715 -0.000954 -0.007304 0.005019 112.513252 1686.963989
15 1686.963989 -0.000715 -0.000954 -0.007302 0.005022 112.560806 1686.963989
16 1686.963989 -0.000715 -0.000954 -0.004563 0.000874 111.678535 1686.963989
[L_Foot]
14 3041.570068 -30.715107 11.297464 -18.208590 57.998981 56.545315 3041.746094
15 3041.570068 -30.715107 11.297464 -8.723594 55.560516 62.919975 3041.746094
16 3041.570068 -30.715107 11.297464 -5.500517 49.670582 59.143223 3041.746094
[L_Toe1_01]
14 -188.216690 -224.732346 -21.137953 99.834290 -12.317441 -169.417374 293.899567
15 -188.216690 -224.732346 -21.137953 97.048470 -12.073921 -165.294907 293.899567
16 -188.216690 -224.732346 -21.137953 93.534134 -11.333973 -160.490692 293.899567
[L_Toe2_01]
14 200.746536 -219.926590 148.838394 -85.509804 -26.079645 -52.506737 332.896027
15 200.746536 -219.926590 148.838394 -80.992874 -23.941551 -55.300056 332.896027
16 200.746536 -219.926590 148.838394 -76.994476 -20.965446 -56.613697 332.896027
[L_Toe3_01]
14 188.832520 -219.859131 -191.078659 -108.143387 1.037890 -69.325920 347.140900
15 188.832520 -219.859131 -191.078659 -107.125427 1.635333 -65.422890 347.140900
16 188.832520 -219.859131 -191.078659 -105.665154 2.820351 -60.510448 347.140900
[planeAlignerLeft]
14 154.754654 -726.227051 217.666931 169.253616 -77.725761 91.110870 773.778809
15 122.872040 -730.371521 203.683701 169.200836 -81.124893 93.779366 768.132202
16 83.623726 -736.754272 181.506195 169.144012 -85.184685 97.011360 763.376953
[L_Toe1_02]
14 413.761139 0.000477 0.000000 0.001399 -24.106947 0.001399 413.761139
15 413.761139 0.000477 0.000000 0.001398 -24.114031 0.001398 413.761139
16 413.761139 0.000477 0.000000 0.001398 -24.121109 0.001398 413.761139
[L_Toe1_03]
14 464.317322 0.000358 -0.000089 0.007611 72.259109 0.007611 464.317322
15 464.317322 0.000358 -0.000089 0.007860 72.824486 0.007860 464.317322
16 464.317322 0.000358 -0.000089 0.008125 73.389870 0.008125 464.317322
[L_Toe2_02]
14 342.235809 -0.000477 0.000238 -0.002572 -39.190807 -0.002572 342.235809
15 342.235809 -0.000477 0.000238 -0.002491 -48.721642 -0.002491 342.235809
16 342.235809 -0.000477 0.000238 -0.002415 -58.252457 -0.002415 342.235809
[L_Toe2_03]
14 420.210846 -0.000715 0.000000 0.006487 35.129562 -0.001393 420.210846
15 420.210846 -0.000715 0.000000 0.006903 45.973633 -0.000641 420.210846
16 420.210846 -0.000715 0.000000 -0.000295 58.420521 -0.003929 420.210846
[L_Toe3_02]
14 329.270111 0.000954 0.000000 -0.010810 -70.313614 0.009644 329.270111
15 329.270111 0.000954 0.000000 -0.005566 -72.864868 0.006172 329.270111
16 329.270111 0.000954 0.000000 0.001183 -75.416122 0.001183 329.270111
[L_Toe3_03]
14 439.137451 -0.001907 0.000954 -0.002389 74.094604 -0.005919 439.137451
15 439.137451 -0.001907 0.000954 0.012768 79.451889 0.012768 439.137451
16 439.137451 -0.001907 0.000954 0.030464 85.584251 0.030464 439.137451
[planeLockWeightLeft]
14 740.741516 -0.000305 -0.000153 -0.011826 -0.004376 0.005620 740.741455
15 259.259979 -0.000000 -0.000305 -0.011826 -0.004376 0.005620 259.259979
16 0.000656 0.000000 -0.000286 -0.011826 -0.004376 0.005620 0.000715
[R_Leg01]
14 761.455627 -0.001907 -0.000358 103.395348 10.032092 86.580238 761.455688
15 761.455627 -0.001907 -0.000358 100.267799 3.542208 91.644295 761.455688
16 761.455627 -0.001907 -0.000358 97.376587 -1.901208 95.369568 761.455688
[R_Leg02]
14 1441.140625 0.000000 -0.000238 0.096265 0.095618 -79.846893 1441.140625
15 1441.140625 0.000000 -0.000238 0.096487 0.087736 -78.754921 1441.140625
16 1441.140625 0.000000 -0.000238 0.112511 0.076101 -79.280563 1441.140625
[R_Leg03]
14 1686.963989 0.000954 0.001431 -0.056548 0.013170 95.402405 1686.963989
15 1686.963989 0.000954 0.001431 -0.081796 0.012679 88.165833 1686.963989
16 1686.963989 0.000954 0.001431 -0.099909 0.011791 83.439445 1686.963989
[R_Foot]
14 3041.560059 -30.531288 -11.204481 9.983438 -21.297602 88.761230 3041.734131
15 3041.560059 -30.531288 -11.204481 6.729671 -21.166464 91.647018 3041.734131
16 3041.560059 -30.531288 -11.204481 4.108892 -21.072407 93.740280 3041.734131
[planeAlignerRight]
14 -96.605667 -701.695984 -32.003349 0.000000 -89.951546 -90.004936 709.037415
15 16.800880 -607.441284 9.396776 0.000000 -89.951546 -90.004936 607.746277
16 77.868538 -556.686340 31.299856 0.000000 -89.960434 -90.004951 562.976807
[R_Toe1_01]
14 -188.383347 -224.864899 21.052242 92.055206 3.271599 -153.810303 294.101532
15 -188.383347 -224.864899 21.052242 91.454788 1.786521 -166.545212 294.101532
16 -188.383347 -224.864899 21.052242 91.372368 0.705566 -172.188553 294.101532
[R_Toe2_01]
14 200.637817 -220.002121 -148.787384 -101.605553 15.267576 -51.853275 332.857574
15 200.637817 -220.002121 -148.787384 -99.670517 12.335883 -43.908138 332.857574
16 200.637817 -220.002121 -148.787384 -98.910271 10.643991 -40.444477 332.857574
[R_Toe3_01]
14 188.606735 -220.092957 191.126343 -73.636841 -14.497657 -52.595451 347.192566
15 188.606735 -220.092957 191.126343 -75.059151 -16.055773 -46.078812 347.192566
16 188.606735 -220.092957 191.126343 -75.638771 -16.590347 -43.275230 347.192566
[planeLockWeightRight]
14 999.999756 0.000236 -0.000166 -0.011823 -0.004379 -0.000027 999.999756
15 999.999695 0.000243 -0.000179 -0.011823 -0.004379 -0.000027 999.999695
16 999.999634 0.000250 -0.000192 -0.011823 -0.004379 -0.000027 999.999634
[R_Toe1_02]
14 413.762085 0.000477 -0.000119 0.001385 -25.891125 0.001385 413.762085
15 413.762085 0.000477 -0.000119 0.001421 -21.363602 0.001421 413.762085
16 413.762085 0.000477 -0.000119 0.001449 -18.210733 0.001449 413.762085
[R_Toe1_03]
14 464.317810 0.000000 0.001088 0.004179 57.380558 0.004179 464.317810
15 464.317810 0.000000 0.001088 -0.016205 85.442719 -0.012706 464.317810
16 464.317810 0.000000 0.001088 -179.991653 83.479080 -179.988144 464.317810
[R_Toe2_02]
14 342.234741 -0.000954 0.000238 -0.002336 -77.976471 -0.002336 342.234741
15 342.234741 -0.000954 0.000238 -0.002338 -76.924843 -0.002338 342.234741
16 342.234741 -0.000954 0.000238 -0.002341 -75.873177 -0.002341 342.234741
[R_Toe2_03]
14 420.210846 0.000715 -0.000268 -179.993713 75.426582 -179.997238 420.210846
15 420.210846 0.000715 -0.000268 -179.991852 79.678612 -179.995361 420.210846
16 420.210846 0.000715 -0.000268 -179.987396 83.930557 -179.990891 420.210846
[R_Toe3_02]
14 329.270355 -0.000477 -0.000954 0.001176 -82.221458 0.001176 329.270355
15 329.270355 -0.000477 -0.000954 0.001178 -80.577858 0.001178 329.270355
16 329.270355 -0.000477 -0.000954 0.001179 -78.934105 0.001179 329.270355
[R_Toe3_03]
14 439.137939 0.000238 0.001431 -179.998352 70.681046 -179.994797 439.137939
15 439.137939 0.000238 0.001431 -179.996109 78.318382 -179.992599 439.137939
16 439.137939 0.000238 0.001431 -179.990494 84.143585 -179.987000 439.137939
[Rear_Leg02]
14 1162.777710 -0.029802 0.005960 5.345029 -8.644634 -97.450813 1162.777710
15 1162.777710 -0.029802 0.005960 6.803706 -10.962749 -96.010773 1162.777710
16 1162.777710 -0.029802 0.005960 8.497062 -14.020597 -93.088509 1162.777710
[Rear_Leg03]
14 607.192505 -0.013351 -0.073195 0.010338 -0.005411 71.609871 607.192505
15 607.192505 -0.013351 -0.073195 0.010336 -0.005414 71.647964 607.192505
16 607.192505 -0.013351 -0.073195 0.010356 -0.005376 71.225166 607.192505
[Rear_Leg04]
14 995.874512 -0.020504 -0.011921 -0.041263 -0.016320 74.203201 995.874573
15 995.874512 -0.020504 -0.011921 -0.041281 -0.016274 74.330315 995.874573
16 995.874512 -0.020504 -0.011921 -0.041191 -0.016502 73.698593 995.874573
[Rear_Foot]
14 3096.176270 -0.067472 -0.041425 -44.935776 75.502686 111.059090 3096.176270
15 3096.176270 -0.067472 -0.041425 -55.588383 74.292831 99.476501 3096.176270
16 3096.176270 -0.067472 -0.041425 -65.361481 71.947243 88.653305 3096.176270
[planeAlignerCenter]
14 -17.137571 -63.761906 -688.919434 12.240772 -0.001473 179.998184 692.076050
15 -10.504424 -53.552864 -720.559570 12.240772 -0.001473 179.998184 722.623230
16 -4.908572 -41.932240 -747.897278 12.240773 -0.001473 179.998184 749.087952
[Rear_Toe1_01]
14 0.653352 83.966492 -371.173737 0.904944 34.320679 91.511200 380.553192
15 0.653352 83.966492 -371.173737 0.677273 36.906639 91.083054 380.553192
16 0.653352 83.966492 -371.173737 0.489430 39.228298 90.741302 380.553192
[Rear_Toe2_01]
14 178.200760 -294.826019 -362.060547 -4.682944 29.293207 -67.256973 499.765686
15 178.200760 -294.826019 -362.060547 -4.088835 30.967133 -66.510788 499.765686
16 178.200760 -294.826019 -362.060547 -3.458211 32.633636 -65.730598 499.765686
[Rear_Toe3_01]
14 -153.359680 -308.780914 -362.060852 4.006871 27.737089 -112.207573 499.952881
15 -153.359680 -308.780914 -362.060852 3.974221 29.566704 -112.108139 499.952881
16 -153.359680 -308.780914 -362.060852 3.944679 31.395901 -112.008080 499.952881
[planeLockWeightCenter]
14 1000.000122 0.000493 -0.000120 -0.011814 -0.004373 -0.000015 1000.000122
15 1000.000122 0.000480 -0.000108 -0.011814 -0.004373 -0.000015 1000.000122
16 1000.000122 0.000467 -0.000096 -0.011814 -0.004373 -0.000015 1000.000122
[Rear_Toe1_02]
14 379.707825 0.194073 0.000477 0.001332 -33.619602 0.001332 379.707855
15 379.707825 0.194073 0.000477 0.000483 -33.374367 0.004169 379.707855
16 379.707825 0.194073 0.000477 -0.000349 -33.129116 0.006995 379.707855
[Rear_Toe1_03]
14 500.129700 0.165701 0.000119 0.008434 74.001709 0.008434 500.129761
15 500.129700 0.165701 0.000119 0.005042 68.233604 0.007422 500.129761
16 500.129700 0.165701 0.000119 0.002535 62.450798 0.007348 500.129761
[Rear_Toe2_02]
14 340.494507 0.000238 -0.000954 0.001197 -67.083504 0.001197 340.494507
15 340.494507 0.000238 -0.000954 0.001197 -67.250946 0.001197 340.494507
16 340.494507 0.000238 -0.000954 0.001196 -67.882881 0.001196 340.494507
[Rear_Toe2_03]
14 433.103577 0.000000 0.000238 0.005576 65.700302 0.005576 433.103546
15 433.103577 0.000000 0.000238 0.005626 65.917747 0.005626 433.103546
16 433.103577 0.000000 0.000238 0.005785 66.590950 0.005785 433.103546
[Rear_Toe3_02]
14 340.494141 -0.000358 -0.000477 0.001173 -61.569141 -0.004525 340.494171
15 340.494141 -0.000358 -0.000477 0.003168 -62.901855 -0.005790 340.494171
16 340.494141 -0.000358 -0.000477 0.005326 -64.234375 -0.007223 340.494171
[Rear_Toe3_03]
14 433.103577 0.001431 -0.000238 -0.000274 58.105644 -0.003912 433.103546
15 433.103577 0.001431 -0.000238 -0.000395 59.793602 -0.004018 433.103546
16 433.103577 0.001431 -0.000238 -0.000529 61.480850 -0.004137 433.103546
[Back_Bone]
14 1312.175781 -701.934692 0.000954 -1.072546 0.895029 -84.730461 1488.125488
15 1312.175781 -701.934692 0.000954 -1.338114 0.980707 -84.649048 1488.125488
16 1312.175781 -701.934692 0.000954 -1.603561 1.066758 -84.568024 1488.125488
[Head]
14 1406.159424 809.709290 0.001431 4.698215 -2.667777 5.090794 1622.625488
15 1406.159424 809.709290 0.001431 5.143476 -2.776442 4.768266 1622.625488
16 1406.159424 809.709290 0.001431 5.589363 -2.882593 4.444886 1622.625488
[Motor_Bone]
14 1158.364380 -417.834747 0.000477 -1.283821 0.107337 -105.880653 1231.419434
15 1158.364380 -417.834747 0.000477 -1.484410 0.110806 -105.876442 1231.419434
16 1158.364380 -417.834747 0.000477 -1.685001 0.114290 -105.872276 1231.419434
[Ping_Mechanism]
14 1283.791382 -464.726532 -5.020361 0.000103 -0.000053 82.120995 1365.326416
15 1292.665161 -467.691040 -10.192178 0.000103 -0.000053 82.120995 1374.707886
16 1297.009766 -469.486694 -10.430965 0.000103 -0.000053 82.120995 1379.406128
[BN_LookIK]
14 193.241119 1380.371704 -0.002861 0.000000 89.965736 -31.038179 1393.832153
15 193.241119 1380.371704 -0.002861 0.000000 89.965736 -31.038179 1393.832153
16 193.241119 1380.371704 -0.002861 0.000000 89.965736 -31.038179 1393.832153
[bottomMouth]
14 -435.092926 615.759399 -0.000954 -0.000022 0.000016 73.527184 753.966492
15 -435.092926 615.759399 -0.000954 -0.000022 0.000016 73.527184 753.966492
16 -435.092926 615.759399 -0.000954 -0.000022 0.000016 73.527184 753.966492
[L_Mouth01]
14 554.440979 7.658243 838.222046 150.204178 23.759130 109.605339 1005.027161
15 554.440979 7.658243 838.222046 150.204178 23.759130 109.605339 1005.027161
16 554.440979 7.658243 838.222046 150.204178 23.759130 109.605339 1005.027161
[L_mouthFront]
14 551.629089 934.514771 339.150421 0.000081 2.804060 79.119301 1136.941284
15 551.629089 934.514771 339.150421 0.000081 2.804060 79.119301 1136.941284
16 551.629089 934.514771 339.150421 0.000081 2.804060 79.119301 1136.941284
[mouthGun]
14 55.332661 1627.420898 0.000000 0.000023 0.000009 -11.038128 1628.361328
15 55.332661 1627.420898 0.000000 0.000023 0.000009 -11.038128 1628.361328
16 55.332661 1627.420898 0.000000 0.000023 0.000009 -11.038128 1628.361328
[R_Mouth01]
14 554.442383 7.659197 -838.223938 29.795891 -23.759109 109.605331 1005.029541
15 554.442383 7.659197 -838.223938 29.795891 -23.759109 109.605331 1005.029541
16 554.442383 7.659197 -838.223938 29.795891 -23.759109 109.605331 1005.029541
[R_mouthFront]
14 551.629089 934.514282 -339.151367 0.000029 -2.803930 79.119133 1136.941162
15 551.629089 934.514282 -339.151367 0.000029 -2.803930 79.119133 1136.941162
16 551.629089 934.514282 -339.151367 0.000029 -2.803930 79.119133 1136.941162
[TopMouth]
14 461.269867 -56.106091 -0.008583 -0.000059 -0.000268 92.025169 464.669525
15 461.269867 -56.106091 -0.008583 -0.000059 -0.000268 92.025169 464.669525
16 461.269867 -56.106091 -0.008583 -0.000059 -0.000268 92.025169 464.669525
[weapon_bone]
14 -987.239868 1448.372803 0.001431 0.000000 89.965736 -31.038221 1752.833740
15 -987.239868 1448.372803 0.001431 0.000000 89.965736 -31.038221 1752.833740
16 -987.239868 1448.372803 0.001431 0.000000 89.965736 -31.038221 1752.833740
